<svg width="417" height="218" viewBox="0 0 417 218" fill="none" xmlns="http://www.w3.org/2000/svg">
<rect x="2.11" y="173.029" width="37" height="37" rx="1.5" transform="rotate(-39.0785 2.11 173.029)" stroke="black" stroke-opacity="0.12" stroke-width="3" stroke-dasharray="8 4"/>
<circle cx="153.047" cy="61.2655" r="3.78049" transform="rotate(-25.7189 153.047 61.2655)" fill="#FF6298"/>
<circle cx="175.358" cy="107.587" r="3.78049" transform="rotate(-25.7189 175.358 107.587)" fill="#FF6298"/>
<circle cx="164.202" cy="84.4261" r="3.78049" transform="rotate(-25.7189 164.202 84.4261)" fill="#FF6298"/>
<circle cx="169.395" cy="53.3908" r="3.78049" transform="rotate(-25.7189 169.395 53.3908)" fill="#FF6298"/>
<circle cx="191.707" cy="99.712" r="3.78049" transform="rotate(-25.7189 191.707 99.712)" fill="#FF6298"/>
<circle cx="180.551" cy="76.5514" r="3.78049" transform="rotate(-25.7189 180.551 76.5514)" fill="#FF6298"/>
<circle cx="185.744" cy="45.5161" r="3.78049" transform="rotate(-25.7189 185.744 45.5161)" fill="#FF6298"/>
<circle cx="208.056" cy="91.8373" r="3.78049" transform="rotate(-25.7189 208.056 91.8373)" fill="#FF6298"/>
<circle cx="196.9" cy="68.6767" r="3.78049" transform="rotate(-25.7189 196.9 68.6767)" fill="#FF6298"/>
<circle cx="202.092" cy="37.6414" r="3.78049" transform="rotate(-25.7189 202.092 37.6414)" fill="#FF6298"/>
<circle cx="224.404" cy="83.9626" r="3.78049" transform="rotate(-25.7189 224.404 83.9626)" fill="#FF6298"/>
<circle cx="213.248" cy="60.802" r="3.78049" transform="rotate(-25.7189 213.248 60.802)" fill="#FF6298"/>
<circle cx="200.177" cy="52.8309" r="3.78049" transform="rotate(-25.7189 200.177 52.8309)" fill="#FF6298"/>
<circle cx="211.333" cy="75.9915" r="3.78049" transform="rotate(-25.7189 211.333 75.9915)" fill="#FF6298"/>
<circle cx="183.829" cy="60.7056" r="3.78049" transform="rotate(-25.7189 183.829 60.7056)" fill="#FF6298"/>
<circle cx="194.984" cy="83.8662" r="3.78049" transform="rotate(-25.7189 194.984 83.8662)" fill="#FF6298"/>
<circle cx="166.118" cy="69.2365" r="3.78049" transform="rotate(-25.7189 166.118 69.2365)" fill="#FF6298"/>
<circle cx="177.273" cy="92.3971" r="3.78049" transform="rotate(-25.7189 177.273 92.3971)" fill="#FF6298"/>
<circle cx="199.225" cy="68.6262" r="5" stroke="black"/>
<path d="M360.006 153.638L378.514 192.785L335.358 189.24L360.006 153.638Z" stroke="#BED1EE" stroke-opacity="0.57" stroke-width="3"/>
<path d="M359.672 63.9798L346.511 22.7272L388.817 31.9556L359.672 63.9798Z" stroke="#BED1EE" stroke-opacity="0.57" stroke-width="3"/>
<path d="M355.846 28.7079L403.229 39.0437L370.587 74.9109L355.846 28.7079Z" fill="#0765E3"/>
<path d="M371.226 71.9798L358.065 30.7272L400.371 39.9556L371.226 71.9798Z" stroke="#0765E3" stroke-opacity="0.57" stroke-width="3"/>
</svg>
